<?xml version="1.0" encoding="utf-8"?>
<!-- Generator: Adobe Illustrator 16.0.0, SVG Export Plug-In . SVG Version: 6.00 Build 0)  -->
<!DOCTYPE svg PUBLIC "-//W3C//DTD SVG 1.1//EN" "http://www.w3.org/Graphics/SVG/1.1/DTD/svg11.dtd">
<svg version="1.1" id="Layer_1" xmlns="http://www.w3.org/2000/svg" xmlns:xlink="http://www.w3.org/1999/xlink" x="0px" y="0px"
	 width="152px" height="20px" viewBox="0 0 152 20" enable-background="new 0 0 152 20" xml:space="preserve">
<g>
	<path fill-rule="evenodd" clip-rule="evenodd" d="M64.38,2.754c-0.093-0.017-0.192-0.032-0.294-0.045L63.97,2.69
		c-0.171-0.022-0.343-0.039-0.513-0.055c-0.116-0.01-0.233-0.017-0.348-0.024c-0.209-0.014-0.413-0.02-0.611-0.02
		c-0.09,0-0.141,0.003-0.23,0.003c-0.166,0.003-0.325,0.011-0.487,0.02c-0.089,0.006-0.179,0.015-0.267,0.021
		c-0.13,0.011-0.26,0.026-0.387,0.039l-0.105,0.016L60.9,2.706l-0.142,0.022c-0.062,0.01-0.126,0.021-0.189,0.032
		c-0.087,0.015-0.171,0.032-0.257,0.05c-0.521,0.104-1.003,0.244-1.448,0.41c-0.228,0.086-0.448,0.181-0.658,0.278
		c-0.174,0.08-0.341,0.167-0.503,0.256c-0.156,0.086-0.308,0.173-0.452,0.266c-0.084,0.054-0.164,0.105-0.242,0.16
		c-0.07,0.048-0.138,0.095-0.202,0.144c-0.138,0.104-0.273,0.209-0.399,0.315c-0.119,0.101-0.234,0.201-0.337,0.3
		c-0.093,0.089-0.187,0.178-0.272,0.273c-0.087,0.095-0.175,0.189-0.261,0.287c-0.09,0.108-0.179,0.22-0.265,0.335
		c-0.063,0.083-0.123,0.168-0.188,0.257c-0.039,0.057-0.078,0.118-0.114,0.178c-0.232,0.358-0.431,0.745-0.597,1.152
		c-0.206,0.509-0.354,1.061-0.436,1.645c-0.023,0.185-0.045,0.37-0.056,0.563c-0.01,0.146-0.016,0.295-0.016,0.444
		c0,0.115,0.002,0.223,0.008,0.336c0.009,0.113,0.019,0.229,0.033,0.342l0.01,0.076c0.016,0.135,0.039,0.267,0.062,0.396
		c0.014,0.053,0.022,0.103,0.034,0.152c0.025,0.109,0.052,0.216,0.082,0.32c0.039,0.135,0.078,0.271,0.125,0.401
		c0.057,0.16,0.117,0.315,0.183,0.471c0.107,0.241,0.22,0.473,0.347,0.69c0.076,0.13,0.15,0.255,0.228,0.375
		c0.062,0.095,0.125,0.188,0.191,0.278c0.088,0.118,0.175,0.233,0.263,0.342c0.093,0.114,0.188,0.224,0.28,0.327
		c0.117,0.128,0.238,0.246,0.35,0.354l0.061,0.058c0.095,0.085,0.196,0.182,0.313,0.275c0.08,0.066,0.164,0.135,0.253,0.202
		c0.085,0.063,0.171,0.13,0.263,0.193c0.111,0.077,0.229,0.154,0.354,0.229c0.129,0.081,0.267,0.164,0.413,0.241
		c0.29,0.155,0.61,0.304,0.962,0.438c0.132,0.052,0.265,0.102,0.407,0.146c0.14,0.046,0.284,0.089,0.43,0.13
		c0.253,0.067,0.52,0.131,0.799,0.183c0.224,0.04,0.458,0.075,0.699,0.103c0.24,0.03,0.488,0.049,0.746,0.064
		c0.125,0.005,0.25,0.009,0.38,0.011c0.058,0,0.119,0.004,0.179,0.004c0.464,0,0.888-0.018,1.281-0.049l0.078-0.006
		c0.16-0.015,0.312-0.029,0.458-0.049c0.228-0.026,0.444-0.058,0.646-0.093c0.132-0.022,0.257-0.049,0.376-0.07
		c0.193-0.042,0.372-0.081,0.542-0.128c0.126-0.03,0.249-0.065,0.366-0.1c0.14-0.04,0.276-0.083,0.407-0.126l0.125-0.041
		c0.062-0.022,0.146-0.05,0.246-0.087c0.132-0.05,0.292-0.109,0.473-0.185c0.109-0.046,0.226-0.094,0.347-0.148
		c0.107-0.047,0.22-0.098,0.331-0.152c0.048-0.02,0.096-0.043,0.146-0.066v-2.697c-0.031,0.017-0.068,0.037-0.102,0.058
		l-0.194,0.112c-0.191,0.112-0.376,0.217-0.561,0.315c-0.208,0.105-0.405,0.203-0.605,0.292c-0.347,0.158-0.678,0.288-1.003,0.4
		c-0.613,0.213-1.176,0.348-1.673,0.431c-0.06,0.008-0.119,0.018-0.175,0.026c-0.138,0.019-0.271,0.037-0.395,0.049
		c-0.195,0.022-0.376,0.031-0.542,0.039c-0.107,0.004-0.208,0.006-0.298,0.006c-0.202,0-0.407-0.002-0.617-0.017
		c-0.245-0.018-0.493-0.046-0.744-0.086c-0.407-0.063-0.816-0.164-1.217-0.305c-0.061-0.02-0.117-0.04-0.178-0.062
		c-0.039-0.016-0.078-0.032-0.113-0.048c-0.066-0.024-0.132-0.054-0.196-0.083c-0.138-0.063-0.273-0.129-0.407-0.203
		c-0.066-0.034-0.132-0.072-0.198-0.111c-0.068-0.04-0.135-0.083-0.199-0.126c-0.082-0.055-0.166-0.112-0.243-0.173
		c-0.078-0.057-0.156-0.117-0.22-0.174l-0.094-0.081l-0.048-0.039l-0.025-0.026l-0.033-0.029c-0.127-0.123-0.244-0.243-0.351-0.363
		c-0.056-0.068-0.113-0.138-0.167-0.206c-0.05-0.067-0.099-0.136-0.144-0.202c-0.044-0.063-0.084-0.128-0.123-0.188
		c-0.058-0.098-0.109-0.193-0.16-0.288c-0.043-0.08-0.078-0.16-0.115-0.239c-0.06-0.136-0.113-0.273-0.156-0.402
		c-0.035-0.104-0.062-0.204-0.089-0.301c-0.072-0.28-0.111-0.539-0.133-0.761c-0.008-0.082-0.014-0.16-0.018-0.23
		C56.6,10.09,56.6,9.996,56.6,9.92c0-0.048,0-0.106,0.004-0.171c0.005-0.152,0.017-0.351,0.051-0.571
		c0.021-0.135,0.05-0.28,0.087-0.433c0.025-0.099,0.053-0.203,0.09-0.309c0.029-0.094,0.064-0.191,0.103-0.292
		c0.027-0.066,0.057-0.132,0.087-0.202c0.042-0.092,0.088-0.179,0.138-0.275c0.035-0.069,0.078-0.138,0.119-0.205
		c0.092-0.156,0.196-0.308,0.317-0.459c0.041-0.054,0.086-0.109,0.134-0.165c0.059-0.067,0.123-0.14,0.189-0.205
		c0.033-0.035,0.066-0.069,0.097-0.104c0.519-0.496,1.099-0.865,1.699-1.126c0.093-0.041,0.189-0.077,0.283-0.114
		c0.097-0.038,0.19-0.069,0.286-0.101c0.105-0.032,0.212-0.063,0.317-0.092c0.096-0.026,0.197-0.049,0.296-0.073
		c0.1-0.022,0.197-0.039,0.296-0.056c0.109-0.021,0.219-0.036,0.325-0.049c0.107-0.015,0.218-0.026,0.324-0.036
		c0.206-0.017,0.407-0.026,0.604-0.026c0.066,0,0.133,0,0.195,0c0.146,0.007,0.29,0.009,0.428,0.019
		c0.097,0.006,0.191,0.013,0.285,0.019c0.175,0.019,0.348,0.038,0.51,0.063c0.146,0.021,0.284,0.043,0.415,0.069
		c0.205,0.038,0.39,0.081,0.553,0.124c0.109,0.026,0.208,0.054,0.296,0.08c0.138,0.039,0.255,0.075,0.345,0.103
		c0.156,0.052,0.244,0.084,0.244,0.084c0.14,0.045,0.275,0.1,0.405,0.151c0.179,0.066,0.35,0.14,0.514,0.212
		c0.139,0.061,0.267,0.122,0.39,0.179c0.098,0.046,0.191,0.095,0.283,0.137c0.152,0.077,0.282,0.146,0.392,0.2l0.286,0.15V3.797
		c0,0-0.173-0.068-0.473-0.177c-0.13-0.045-0.287-0.104-0.464-0.165c-0.096-0.03-0.2-0.067-0.312-0.103
		c-0.086-0.028-0.175-0.06-0.271-0.088c-0.105-0.032-0.213-0.066-0.325-0.101c-0.082-0.023-0.166-0.046-0.25-0.073l-0.078-0.019
		c-0.08-0.02-0.164-0.042-0.247-0.065c-0.104-0.026-0.205-0.052-0.306-0.076c-0.066-0.017-0.134-0.032-0.2-0.046
		c-0.109-0.023-0.22-0.048-0.331-0.069C64.616,2.794,64.498,2.774,64.38,2.754L64.38,2.754z M50.56,0h21.939v19.79H50.56V0L50.56,0z
		"/>
	<path fill-rule="evenodd" clip-rule="evenodd" d="M33.698,10.912v3.889h2.635c0,0,0.054-0.003,0.141-0.005
		c0.087-0.002,0.212-0.005,0.365-0.02c0.287-0.023,0.665-0.075,1.028-0.192c0.333-0.108,0.652-0.27,0.897-0.504
		c0.096-0.092,0.173-0.188,0.236-0.281c0.21-0.312,0.261-0.628,0.273-0.809c0.005-0.076,0.005-0.124,0.005-0.124s0-0.033,0-0.093
		c-0.001-0.078-0.013-0.222-0.052-0.38c-0.051-0.183-0.145-0.397-0.31-0.593c-0.031-0.037-0.064-0.074-0.103-0.108
		c-0.072-0.072-0.15-0.138-0.237-0.198c-0.143-0.101-0.308-0.189-0.487-0.263c-0.235-0.099-0.5-0.173-0.793-0.225
		c-0.148-0.026-0.304-0.048-0.465-0.063c-0.102-0.009-0.2-0.015-0.305-0.021c-0.09-0.005-0.186-0.007-0.278-0.007
		C35.311,10.916,33.698,10.912,33.698,10.912L33.698,10.912z"/>
	<path fill-rule="evenodd" clip-rule="evenodd" d="M33.698,4.998v3.69h1.278c0,0,0.084,0,0.197-0.004
		c0.086-0.002,0.194-0.009,0.287-0.015c0.263-0.019,0.626-0.054,0.99-0.151c0.068-0.017,0.141-0.041,0.209-0.063
		c0.287-0.098,0.56-0.241,0.772-0.44c0.167-0.159,0.278-0.337,0.352-0.509c0.09-0.209,0.123-0.413,0.136-0.553
		c0.012-0.128,0.012-0.209,0.012-0.209s0.002-0.063-0.004-0.159c-0.008-0.161-0.045-0.421-0.175-0.673
		c-0.064-0.121-0.151-0.236-0.27-0.348c-0.145-0.137-0.317-0.24-0.506-0.32c-0.358-0.153-0.768-0.213-1.116-0.236
		c-0.149-0.008-0.287-0.012-0.403-0.012C35.197,4.998,33.698,4.998,33.698,4.998L33.698,4.998z"/>
	<path fill-rule="evenodd" clip-rule="evenodd" d="M31.037,2.774v14.251h5.598c0,0,2.727,0.072,4.234-1.371
		c1.225-1.177,1.139-2.533,1.139-2.533s0.09-1.424-1.047-2.514c-0.968-0.925-2.203-1.174-2.203-1.174s0.559-0.25,0.987-0.663
		c0.201-0.191,0.914-0.81,0.914-2.309c0-1.514-1.048-2.382-1.048-2.382s-1.151-1.305-3.748-1.305H31.037L31.037,2.774z M25.283,0
		h21.938v19.79H25.283V0L25.283,0z"/>
	<path fill-rule="evenodd" clip-rule="evenodd" d="M8.419,10.912v3.889h2.634c0,0,0.055-0.003,0.141-0.005s0.212-0.005,0.364-0.02
		c0.288-0.023,0.665-0.075,1.029-0.192c0.332-0.108,0.652-0.27,0.897-0.504c0.095-0.092,0.174-0.188,0.236-0.281
		c0.206-0.312,0.26-0.628,0.272-0.809c0.006-0.076,0.006-0.124,0.006-0.124s0-0.033-0.003-0.093c0-0.078-0.012-0.222-0.053-0.38
		c-0.048-0.183-0.141-0.397-0.306-0.593c-0.033-0.037-0.066-0.074-0.102-0.108c-0.074-0.072-0.152-0.138-0.239-0.198
		c-0.143-0.101-0.308-0.189-0.487-0.263c-0.237-0.099-0.502-0.173-0.793-0.225c-0.149-0.026-0.308-0.048-0.466-0.063
		c-0.102-0.009-0.201-0.015-0.306-0.021c-0.09-0.005-0.185-0.007-0.277-0.007C10.031,10.916,8.419,10.912,8.419,10.912L8.419,10.912
		z"/>
	<path fill-rule="evenodd" clip-rule="evenodd" d="M8.419,4.998v3.69h1.277c0,0,0.083,0,0.197-0.004
		c0.088-0.002,0.191-0.009,0.287-0.015c0.263-0.019,0.625-0.054,0.99-0.151c0.069-0.017,0.14-0.041,0.21-0.063
		c0.286-0.098,0.558-0.241,0.771-0.44c0.167-0.159,0.278-0.337,0.353-0.509c0.09-0.209,0.123-0.413,0.135-0.553
		c0.012-0.128,0.012-0.209,0.012-0.209s0.002-0.063-0.004-0.159c-0.008-0.161-0.045-0.421-0.176-0.673
		c-0.063-0.121-0.149-0.236-0.268-0.348c-0.144-0.137-0.318-0.24-0.506-0.32c-0.359-0.153-0.769-0.213-1.115-0.236
		c-0.15-0.008-0.287-0.012-0.405-0.012C9.917,4.998,8.419,4.998,8.419,4.998L8.419,4.998z"/>
	<path fill-rule="evenodd" clip-rule="evenodd" d="M5.757,2.774v14.251h5.596c0,0,2.731,0.072,4.238-1.371
		c1.227-1.177,1.14-2.533,1.14-2.533s0.09-1.424-1.047-2.514c-0.969-0.925-2.204-1.174-2.204-1.174s0.556-0.25,0.987-0.663
		c0.201-0.191,0.915-0.81,0.915-2.309c0-1.514-1.049-2.382-1.049-2.382s-1.152-1.305-3.748-1.305H5.757L5.757,2.774z M0,0h21.939
		v19.79H0V0L0,0z"/>
</g>
<g>
	<path d="M82.609,11.522l-1.943-1.133c-1.221-0.714-2.088-1.417-2.605-2.107c-0.516-0.69-0.773-1.485-0.773-2.385
		c0-1.349,0.488-2.444,1.465-3.287s2.246-1.263,3.807-1.263c1.492,0,2.861,0.402,4.107,1.205v2.784
		c-1.289-1.188-2.674-1.781-4.158-1.781c-0.836,0-1.523,0.185-2.061,0.556c-0.537,0.371-0.807,0.844-0.807,1.423
		c0,0.513,0.199,0.994,0.594,1.441c0.396,0.448,1.033,0.918,1.91,1.411L84.1,9.495c2.18,1.248,3.27,2.836,3.27,4.766
		c0,1.373-0.479,2.489-1.439,3.349c-0.959,0.858-2.207,1.288-3.742,1.288c-1.766,0-3.373-0.521-4.824-1.562v-3.115
		c1.383,1.679,2.982,2.518,4.799,2.518c0.801,0,1.469-0.214,2.002-0.642s0.801-0.963,0.801-1.607
		C84.965,13.446,84.18,12.458,82.609,11.522z"/>
	<path d="M90.044,18.7V1.543h5.668c1.706,0,3.066,0.441,4.081,1.324c1.016,0.883,1.523,2.068,1.523,3.557
		c0,0.998-0.261,1.881-0.781,2.649s-1.232,1.327-2.137,1.674c-0.904,0.347-2.2,0.521-3.89,0.521h-1.894V18.7H90.044z M95.264,3.727
		h-2.648v5.359h2.803c1.04,0,1.842-0.235,2.405-0.705c0.562-0.47,0.844-1.143,0.844-2.018C98.667,4.605,97.533,3.727,95.264,3.727z"
		/>
	<path d="M112.313,1.323c2.762,0,5.062,0.838,6.898,2.514c1.837,1.676,2.756,3.777,2.756,6.304s-0.927,4.617-2.781,6.272
		s-4.191,2.484-7.014,2.484c-2.693,0-4.938-0.829-6.731-2.484c-1.795-1.655-2.692-3.729-2.692-6.224
		c0-2.559,0.904-4.677,2.711-6.353C107.268,2.161,109.552,1.323,112.313,1.323z M112.416,3.653c-2.045,0-3.727,0.613-5.043,1.839
		c-1.316,1.227-1.975,2.792-1.975,4.697c0,1.849,0.66,3.385,1.981,4.61c1.32,1.228,2.974,1.84,4.959,1.84
		c1.994,0,3.658-0.625,4.992-1.876s2.001-2.808,2.001-4.672c0-1.815-0.667-3.342-2.001-4.581
		C115.997,4.272,114.359,3.653,112.416,3.653z"/>
	<path d="M125.191,18.7V1.568h4.479c1.809,0,3.243,0.429,4.306,1.288c1.062,0.859,1.593,2.02,1.593,3.483
		c0,0.998-0.26,1.86-0.78,2.587s-1.267,1.271-2.239,1.63c0.571,0.361,1.13,0.851,1.676,1.472c0.546,0.622,1.313,1.705,2.304,3.251
		c0.622,0.973,1.121,1.705,1.497,2.195l0.946,1.226h-3.045l-0.779-1.128c-0.025-0.041-0.077-0.111-0.153-0.209l-0.499-0.676
		l-0.792-1.251l-0.855-1.338c-0.528-0.703-1.013-1.263-1.452-1.679c-0.44-0.416-0.838-0.717-1.191-0.9
		c-0.354-0.183-0.95-0.275-1.787-0.275h-0.666V18.7H125.191z M128.519,3.653h-0.768v5.408h0.973c1.296,0,2.186-0.106,2.667-0.319
		c0.482-0.212,0.857-0.534,1.126-0.963c0.269-0.429,0.403-0.917,0.403-1.465c0-0.54-0.149-1.028-0.448-1.466
		c-0.298-0.437-0.719-0.746-1.26-0.925C130.67,3.743,129.772,3.653,128.519,3.653z"/>
	<path d="M137.066,1.543h14.932v2.183h-6.231V18.7h-2.571V3.727h-6.129V1.543z"/>
</g>
</svg>
